  0
SECTION
  2
HEADER
  9
$ACADVER
  1
AC1006
  0
ENDSEC
  0
SECTION
  2
TABLES
  0
TABLE
  2
LTYPE
 70
    9
  0
LTYPE
  2
CONTINUOUS
 70
   64
  3
SOLID
 72
   65
 73
    0
 40
0.0
  0
LTYPE
  2
DASHED
 70
   64
  3
_ _ _ _ _ _ _ _ _ _ _ _ _ _ _ _ _ _ _ _ _ _ _
 72
   65
 73
    2
 40
4.0
 49
3.0
 49
-1.0
  0
LTYPE
  2
DOT
 70
   64
  3
...............................................
 72
   65
 73
    2
 40
2.0
 49
1.0
 49
-1.0
  0
LTYPE
  2
DASHDOT
 70
   64
  3
____ _ ____ _ ____ _ ____ _ ____ _ ____ _ ____
 72
   65
 73
    4
 40
8.0
 49
5.0
 49
-1.0
 49
1.0
 49
-1.0
  0
LTYPE
  2
DIVIDE
 70
   64
  3
_____ _ _ _____ _ _ _____ _ _ _____ _ _ ____
 72
   65
 73
    6
 40
10.0
 49
5.0
 49
-1.0
 49
1.0
 49
-1.0
 49
1.0
 49
-1.0
  0
ENDTAB
  0
TABLE
  2
LAYER
 70
    2
  0
LAYER
  2
NULL
 70
   64
 62
    7
  6
CONTINUOUS
  0
LAYER
  2
Layer0
 70
   64
 62
    7
  6
CONTINUOUS
  0
ENDTAB
  0
ENDSEC
  0
SECTION
  2
ENTITIES
  0
ARC
  8
Layer0
  6
CONTINUOUS
 62
8
 10
45.913316673257
 20
13.420000000000
 40
2.450000000000
 50
168.224256014133
 51
191.775743985867
  0
ARC
  8
Layer0
  6
CONTINUOUS
 62
8
 10
45.913316673257
 20
13.420000000000
 40
2.450000000000
 50
-11.775743985867
 51
11.775743985867
  0
CIRCLE
  8
Layer0
  6
CONTINUOUS
 62
8
 10
45.913316673257
 20
13.420000000000
 40
0.750000000000
  0
LINE
  8
Layer0
  6
CONTINUOUS
 62
8
 10
43.791996329698
 20
13.420000000000
 11
45.913316673257
 21
15.541320343560
  0
LINE
  8
Layer0
  6
CONTINUOUS
 62
8
 10
45.913316673257
 20
11.298679656440
 11
48.034637016817
 21
13.420000000000
  0
LINE
  8
Layer0
  6
CONTINUOUS
 62
8
 10
45.913316673257
 20
15.541320343560
 11
48.034637016817
 21
13.420000000000
  0
LINE
  8
Layer0
  6
CONTINUOUS
 62
8
 10
45.913316673257
 20
11.298679656440
 11
43.791996329698
 21
13.420000000000
  0
LINE
  8
Layer0
  6
CONTINUOUS
 62
8
 10
45.913316673257
 20
14.170000000000
 11
45.913316673257
 21
12.670000000000
  0
LINE
  8
Layer0
  6
CONTINUOUS
 62
8
 10
45.163316673257
 20
13.420000000000
 11
46.663316673257
 21
13.420000000000
  0
LINE
  8
Layer0
  6
CONTINUOUS
 62
8
 10
45.413316673257
 20
10.895000000000
 11
46.413316673257
 21
10.895000000000
  0
LINE
  8
Layer0
  6
CONTINUOUS
 62
8
 10
45.413316673257
 20
11.145000000000
 11
46.413316673257
 21
11.145000000000
  0
LINE
  8
Layer0
  6
CONTINUOUS
 62
8
 10
45.413316673257
 20
11.145000000000
 11
45.413316673257
 21
10.895000000000
  0
LINE
  8
Layer0
  6
CONTINUOUS
 62
8
 10
46.413316673257
 20
11.145000000000
 11
46.413316673257
 21
10.895000000000
  0
LINE
  8
Layer0
  6
CONTINUOUS
 62
8
 10
45.413316673257
 20
15.945000000000
 11
46.413316673257
 21
15.945000000000
  0
LINE
  8
Layer0
  6
CONTINUOUS
 62
8
 10
45.413316673257
 20
15.695000000000
 11
46.413316673257
 21
15.695000000000
  0
LINE
  8
Layer0
  6
CONTINUOUS
 62
8
 10
45.413316673257
 20
15.695000000000
 11
45.413316673257
 21
15.945000000000
  0
LINE
  8
Layer0
  6
CONTINUOUS
 62
8
 10
46.413316673257
 20
15.695000000000
 11
46.413316673257
 21
15.945000000000
  0
LINE
  8
Layer0
  6
CONTINUOUS
 62
8
 10
50.560000000000
 20
18.950000000000
 11
50.560000000000
 21
22.350000000000
  0
LINE
  8
Layer0
  6
CONTINUOUS
 62
8
 10
49.810000000000
 20
20.650000000000
 11
46.810000000000
 21
20.650000000000
  0
CIRCLE
  8
Layer0
  6
CONTINUOUS
 62
8
 10
48.310000000000
 20
20.650000000000
 40
1.500000000000
  0
CIRCLE
  8
Layer0
  6
CONTINUOUS
 62
8
 10
44.060000000000
 20
20.650000000000
 40
1.500000000000
  0
LINE
  8
Layer0
  6
CONTINUOUS
 62
8
 10
44.060000000000
 20
20.650000000000
 11
44.060000000000
 21
19.150000000000
  0
LINE
  8
Layer0
  6
CONTINUOUS
 62
8
 10
44.060000000000
 20
20.650000000000
 11
44.060000000000
 21
22.150000000000
  0
LINE
  8
Layer0
  6
CONTINUOUS
 62
8
 10
48.310000000000
 20
22.150000000000
 11
48.310000000000
 21
19.150000000000
  0
LINE
  8
Layer0
  6
CONTINUOUS
 62
8
 10
45.560000000000
 20
20.650000000000
 11
42.560000000000
 21
20.650000000000
  0
CIRCLE
  8
Layer0
  6
CONTINUOUS
 62
8
 10
48.310000000000
 20
20.650000000000
 40
2.000000000000
  0
CIRCLE
  8
Layer0
  6
CONTINUOUS
 62
8
 10
44.060000000000
 20
20.650000000000
 40
2.000000000000
  0
LINE
  8
Layer0
  6
CONTINUOUS
 62
8
 10
41.160000000000
 20
17.950000000000
 11
40.660000000000
 21
17.450000000000
  0
LINE
  8
Layer0
  6
CONTINUOUS
 62
8
 10
41.160000000000
 20
23.350000000000
 11
40.660000000000
 21
23.850000000000
  0
LINE
  8
Layer0
  6
CONTINUOUS
 62
8
 10
40.660000000000
 20
17.450000000000
 11
40.660000000000
 21
18.250000000000
  0
LINE
  8
Layer0
  6
CONTINUOUS
 62
8
 10
40.660000000000
 20
23.050000000000
 11
40.660000000000
 21
23.850000000000
  0
ARC
  8
Layer0
  6
CONTINUOUS
 62
8
 10
40.660000000000
 20
18.450000000000
 40
0.200000000000
 50
-90.000000000000
 51
0.000000000000
  0
ARC
  8
Layer0
  6
CONTINUOUS
 62
8
 10
40.660000000000
 20
22.850000000000
 40
0.200000000000
 50
0.000000000000
 51
90.000000000000
  0
LINE
  8
Layer0
  6
CONTINUOUS
 62
8
 10
46.610000000000
 20
24.650000000000
 11
46.610000000000
 21
23.350000000000
  0
LINE
  8
Layer0
  6
CONTINUOUS
 62
8
 10
45.610000000000
 20
24.650000000000
 11
45.610000000000
 21
23.350000000000
  0
LINE
  8
Layer0
  6
CONTINUOUS
 62
8
 10
40.660000000000
 20
20.650000000000
 11
40.060000000000
 21
20.650000000000
  0
LINE
  8
Layer0
  6
CONTINUOUS
 62
8
 10
40.860000000000
 20
22.850000000000
 11
40.060000000000
 21
22.850000000000
  0
LINE
  8
Layer0
  6
CONTINUOUS
 62
8
 10
40.060000000000
 20
18.450000000000
 11
40.860000000000
 21
18.450000000000
  0
LINE
  8
Layer0
  6
CONTINUOUS
 62
8
 10
40.060000000000
 20
22.850000000000
 11
40.060000000000
 21
21.650000000000
  0
LINE
  8
Layer0
  6
CONTINUOUS
 62
8
 10
50.560000000000
 20
25.650000000000
 11
50.560000000000
 21
29.050000000000
  0
LINE
  8
Layer0
  6
CONTINUOUS
 62
8
 10
49.810000000000
 20
27.350000000000
 11
46.810000000000
 21
27.350000000000
  0
CIRCLE
  8
Layer0
  6
CONTINUOUS
 62
8
 10
48.310000000000
 20
27.350000000000
 40
1.500000000000
  0
CIRCLE
  8
Layer0
  6
CONTINUOUS
 62
8
 10
44.060000000000
 20
27.350000000000
 40
1.500000000000
  0
LINE
  8
Layer0
  6
CONTINUOUS
 62
8
 10
44.060000000000
 20
27.350000000000
 11
44.060000000000
 21
25.850000000000
  0
LINE
  8
Layer0
  6
CONTINUOUS
 62
8
 10
44.060000000000
 20
27.350000000000
 11
44.060000000000
 21
28.850000000000
  0
LINE
  8
Layer0
  6
CONTINUOUS
 62
8
 10
48.310000000000
 20
28.850000000000
 11
48.310000000000
 21
25.850000000000
  0
LINE
  8
Layer0
  6
CONTINUOUS
 62
8
 10
45.560000000000
 20
27.350000000000
 11
42.560000000000
 21
27.350000000000
  0
CIRCLE
  8
Layer0
  6
CONTINUOUS
 62
8
 10
48.310000000000
 20
27.350000000000
 40
2.000000000000
  0
CIRCLE
  8
Layer0
  6
CONTINUOUS
 62
8
 10
44.060000000000
 20
27.350000000000
 40
2.000000000000
  0
LINE
  8
Layer0
  6
CONTINUOUS
 62
8
 10
41.160000000000
 20
24.650000000000
 11
40.660000000000
 21
24.150000000000
  0
LINE
  8
Layer0
  6
CONTINUOUS
 62
8
 10
41.160000000000
 20
30.050000000000
 11
40.660000000000
 21
30.550000000000
  0
LINE
  8
Layer0
  6
CONTINUOUS
 62
8
 10
40.660000000000
 20
24.150000000000
 11
40.660000000000
 21
24.950000000000
  0
LINE
  8
Layer0
  6
CONTINUOUS
 62
8
 10
40.660000000000
 20
29.750000000000
 11
40.660000000000
 21
30.550000000000
  0
ARC
  8
Layer0
  6
CONTINUOUS
 62
8
 10
40.660000000000
 20
25.150000000000
 40
0.200000000000
 50
-90.000000000000
 51
0.000000000000
  0
ARC
  8
Layer0
  6
CONTINUOUS
 62
8
 10
40.660000000000
 20
29.550000000000
 40
0.200000000000
 50
0.000000000000
 51
90.000000000000
  0
LINE
  8
Layer0
  6
CONTINUOUS
 62
8
 10
46.610000000000
 20
31.350000000000
 11
46.610000000000
 21
30.050000000000
  0
LINE
  8
Layer0
  6
CONTINUOUS
 62
8
 10
45.610000000000
 20
31.350000000000
 11
45.610000000000
 21
30.050000000000
  0
LINE
  8
Layer0
  6
CONTINUOUS
 62
8
 10
40.660000000000
 20
27.350000000000
 11
40.060000000000
 21
27.350000000000
  0
LINE
  8
Layer0
  6
CONTINUOUS
 62
8
 10
40.860000000000
 20
29.550000000000
 11
40.060000000000
 21
29.550000000000
  0
LINE
  8
Layer0
  6
CONTINUOUS
 62
8
 10
40.060000000000
 20
25.150000000000
 11
40.860000000000
 21
25.150000000000
  0
LINE
  8
Layer0
  6
CONTINUOUS
 62
8
 10
50.560000000000
 20
32.350000000000
 11
50.560000000000
 21
35.750000000000
  0
LINE
  8
Layer0
  6
CONTINUOUS
 62
8
 10
41.160000000000
 20
31.350000000000
 11
40.660000000000
 21
30.850000000000
  0
LINE
  8
Layer0
  6
CONTINUOUS
 62
8
 10
41.160000000000
 20
36.750000000000
 11
40.660000000000
 21
37.250000000000
  0
LINE
  8
Layer0
  6
CONTINUOUS
 62
8
 10
40.660000000000
 20
30.850000000000
 11
40.660000000000
 21
31.650000000000
  0
LINE
  8
Layer0
  6
CONTINUOUS
 62
8
 10
40.660000000000
 20
36.450000000000
 11
40.660000000000
 21
37.250000000000
  0
ARC
  8
Layer0
  6
CONTINUOUS
 62
8
 10
40.660000000000
 20
31.850000000000
 40
0.200000000000
 50
-90.000000000000
 51
0.000000000000
  0
ARC
  8
Layer0
  6
CONTINUOUS
 62
8
 10
40.660000000000
 20
36.250000000000
 40
0.200000000000
 50
0.000000000000
 51
90.000000000000
  0
LINE
  8
Layer0
  6
CONTINUOUS
 62
8
 10
46.610000000000
 20
38.050000000000
 11
46.610000000000
 21
36.750000000000
  0
LINE
  8
Layer0
  6
CONTINUOUS
 62
8
 10
45.610000000000
 20
38.050000000000
 11
45.610000000000
 21
36.750000000000
  0
LINE
  8
Layer0
  6
CONTINUOUS
 62
8
 10
40.660000000000
 20
34.050000000000
 11
40.060000000000
 21
34.050000000000
  0
LINE
  8
Layer0
  6
CONTINUOUS
 62
8
 10
40.860000000000
 20
36.250000000000
 11
40.060000000000
 21
36.250000000000
  0
LINE
  8
Layer0
  6
CONTINUOUS
 62
8
 10
40.060000000000
 20
31.850000000000
 11
40.860000000000
 21
31.850000000000
  0
LINE
  8
Layer0
  6
CONTINUOUS
 62
8
 10
50.560000000000
 20
39.050000000000
 11
50.560000000000
 21
42.450000000000
  0
LINE
  8
Layer0
  6
CONTINUOUS
 62
8
 10
49.810000000000
 20
40.750000000000
 11
46.810000000000
 21
40.750000000000
  0
CIRCLE
  8
Layer0
  6
CONTINUOUS
 62
8
 10
48.310000000000
 20
40.750000000000
 40
1.500000000000
  0
CIRCLE
  8
Layer0
  6
CONTINUOUS
 62
8
 10
44.060000000000
 20
40.750000000000
 40
1.500000000000
  0
LINE
  8
Layer0
  6
CONTINUOUS
 62
8
 10
44.060000000000
 20
40.750000000000
 11
44.060000000000
 21
39.250000000000
  0
LINE
  8
Layer0
  6
CONTINUOUS
 62
8
 10
44.060000000000
 20
40.750000000000
 11
44.060000000000
 21
42.250000000000
  0
LINE
  8
Layer0
  6
CONTINUOUS
 62
8
 10
48.310000000000
 20
42.250000000000
 11
48.310000000000
 21
39.250000000000
  0
LINE
  8
Layer0
  6
CONTINUOUS
 62
8
 10
45.560000000000
 20
40.750000000000
 11
42.560000000000
 21
40.750000000000
  0
CIRCLE
  8
Layer0
  6
CONTINUOUS
 62
8
 10
48.310000000000
 20
40.750000000000
 40
2.000000000000
  0
CIRCLE
  8
Layer0
  6
CONTINUOUS
 62
8
 10
44.060000000000
 20
40.750000000000
 40
2.000000000000
  0
LINE
  8
Layer0
  6
CONTINUOUS
 62
8
 10
41.160000000000
 20
38.050000000000
 11
40.660000000000
 21
37.550000000000
  0
LINE
  8
Layer0
  6
CONTINUOUS
 62
8
 10
41.160000000000
 20
43.450000000000
 11
40.660000000000
 21
43.950000000000
  0
LINE
  8
Layer0
  6
CONTINUOUS
 62
8
 10
40.660000000000
 20
37.550000000000
 11
40.660000000000
 21
38.350000000000
  0
LINE
  8
Layer0
  6
CONTINUOUS
 62
8
 10
40.660000000000
 20
43.150000000000
 11
40.660000000000
 21
43.950000000000
  0
ARC
  8
Layer0
  6
CONTINUOUS
 62
8
 10
40.660000000000
 20
38.550000000000
 40
0.200000000000
 50
-90.000000000000
 51
0.000000000000
  0
ARC
  8
Layer0
  6
CONTINUOUS
 62
8
 10
40.660000000000
 20
42.950000000000
 40
0.200000000000
 50
0.000000000000
 51
90.000000000000
  0
LINE
  8
Layer0
  6
CONTINUOUS
 62
8
 10
46.610000000000
 20
44.750000000000
 11
46.610000000000
 21
43.450000000000
  0
LINE
  8
Layer0
  6
CONTINUOUS
 62
8
 10
45.610000000000
 20
44.750000000000
 11
45.610000000000
 21
43.450000000000
  0
LINE
  8
Layer0
  6
CONTINUOUS
 62
8
 10
40.660000000000
 20
40.750000000000
 11
40.060000000000
 21
40.750000000000
  0
LINE
  8
Layer0
  6
CONTINUOUS
 62
8
 10
40.860000000000
 20
42.950000000000
 11
40.060000000000
 21
42.950000000000
  0
LINE
  8
Layer0
  6
CONTINUOUS
 62
8
 10
40.060000000000
 20
38.550000000000
 11
40.860000000000
 21
38.550000000000
  0
LINE
  8
Layer0
  6
CONTINUOUS
 62
8
 10
50.560000000000
 20
45.750000000000
 11
50.560000000000
 21
49.150000000000
  0
LINE
  8
Layer0
  6
CONTINUOUS
 62
8
 10
49.810000000000
 20
47.450000000000
 11
46.810000000000
 21
47.450000000000
  0
CIRCLE
  8
Layer0
  6
CONTINUOUS
 62
8
 10
48.310000000000
 20
47.450000000000
 40
1.500000000000
  0
CIRCLE
  8
Layer0
  6
CONTINUOUS
 62
8
 10
44.060000000000
 20
47.450000000000
 40
1.500000000000
  0
LINE
  8
Layer0
  6
CONTINUOUS
 62
8
 10
44.060000000000
 20
47.450000000000
 11
44.060000000000
 21
45.950000000000
  0
LINE
  8
Layer0
  6
CONTINUOUS
 62
8
 10
44.060000000000
 20
47.450000000000
 11
44.060000000000
 21
48.950000000000
  0
LINE
  8
Layer0
  6
CONTINUOUS
 62
8
 10
48.310000000000
 20
48.950000000000
 11
48.310000000000
 21
45.950000000000
  0
LINE
  8
Layer0
  6
CONTINUOUS
 62
8
 10
45.560000000000
 20
47.450000000000
 11
42.560000000000
 21
47.450000000000
  0
CIRCLE
  8
Layer0
  6
CONTINUOUS
 62
8
 10
48.310000000000
 20
47.450000000000
 40
2.000000000000
  0
CIRCLE
  8
Layer0
  6
CONTINUOUS
 62
8
 10
44.060000000000
 20
47.450000000000
 40
2.000000000000
  0
LINE
  8
Layer0
  6
CONTINUOUS
 62
8
 10
41.160000000000
 20
44.750000000000
 11
40.660000000000
 21
44.250000000000
  0
LINE
  8
Layer0
  6
CONTINUOUS
 62
8
 10
41.160000000000
 20
50.150000000000
 11
40.660000000000
 21
50.650000000000
  0
LINE
  8
Layer0
  6
CONTINUOUS
 62
8
 10
40.660000000000
 20
44.250000000000
 11
40.660000000000
 21
45.050000000000
  0
LINE
  8
Layer0
  6
CONTINUOUS
 62
8
 10
40.660000000000
 20
49.850000000000
 11
40.660000000000
 21
50.650000000000
  0
ARC
  8
Layer0
  6
CONTINUOUS
 62
8
 10
40.660000000000
 20
45.250000000000
 40
0.200000000000
 50
-90.000000000000
 51
0.000000000000
  0
ARC
  8
Layer0
  6
CONTINUOUS
 62
8
 10
40.660000000000
 20
49.650000000000
 40
0.200000000000
 50
0.000000000000
 51
90.000000000000
  0
LINE
  8
Layer0
  6
CONTINUOUS
 62
8
 10
40.660000000000
 20
47.450000000000
 11
40.060000000000
 21
47.450000000000
  0
LINE
  8
Layer0
  6
CONTINUOUS
 62
8
 10
40.860000000000
 20
49.650000000000
 11
40.060000000000
 21
49.650000000000
  0
LINE
  8
Layer0
  6
CONTINUOUS
 62
8
 10
40.060000000000
 20
45.250000000000
 11
40.860000000000
 21
45.250000000000
  0
LINE
  8
Layer0
  6
CONTINUOUS
 62
8
 10
40.060000000000
 20
49.650000000000
 11
40.060000000000
 21
45.250000000000
  0
LINE
  8
Layer0
  6
CONTINUOUS
 62
8
 10
40.060000000000
 20
42.950000000000
 11
40.060000000000
 21
38.550000000000
  0
LINE
  8
Layer0
  6
CONTINUOUS
 62
8
 10
40.060000000000
 20
36.250000000000
 11
40.060000000000
 21
35.050000000000
  0
LINE
  8
Layer0
  6
CONTINUOUS
 62
8
 10
40.060000000000
 20
29.550000000000
 11
40.060000000000
 21
28.100000000000
  0
LINE
  8
Layer0
  6
CONTINUOUS
 62
8
 10
40.060000000000
 20
26.600000000000
 11
40.060000000000
 21
25.150000000000
  0
LINE
  8
Layer0
  6
CONTINUOUS
 62
8
 10
40.060000000000
 20
28.100000000000
 11
40.060000000000
 21
26.600000000000
  0
ARC
  8
Layer0
  6
CONTINUOUS
 62
8
 10
45.913316673257
 20
13.420000000000
 40
4.000000000000
 50
-352.819244218542
 51
-277.180755781458
  0
LINE
  8
Layer0
  6
CONTINUOUS
 62
8
 10
43.514879682215
 20
13.920000000000
 11
41.944689706660
 21
13.920000000000
  0
LINE
  8
Layer0
  6
CONTINUOUS
 62
8
 10
43.514879682215
 20
12.920000000000
 11
41.944689706660
 21
12.920000000000
  0
LINE
  8
Layer0
  6
CONTINUOUS
 62
8
 10
48.311753664299
 20
13.920000000000
 11
49.881943639854
 21
13.920000000000
  0
LINE
  8
Layer0
  6
CONTINUOUS
 62
8
 10
48.311753664299
 20
12.920000000000
 11
49.881943639854
 21
12.920000000000
  0
ARC
  8
Layer0
  6
CONTINUOUS
 62
8
 10
45.913316673257
 20
13.420000000000
 40
4.000000000000
 50
-172.819244218542
 51
-97.180755781458
  0
ARC
  8
Layer0
  6
CONTINUOUS
 62
8
 10
45.913316673257
 20
13.420000000000
 40
4.000000000000
 50
-262.819244218542
 51
-187.180755781458
  0
ARC
  8
Layer0
  6
CONTINUOUS
 62
8
 10
45.913316673257
 20
4.621373033403
 40
2.450000000000
 50
168.224256014133
 51
191.775743985867
  0
ARC
  8
Layer0
  6
CONTINUOUS
 62
8
 10
45.913316673257
 20
4.621373033403
 40
2.450000000000
 50
-11.775743985867
 51
11.775743985867
  0
CIRCLE
  8
Layer0
  6
CONTINUOUS
 62
8
 10
45.913316673257
 20
4.621373033403
 40
0.750000000000
  0
LINE
  8
Layer0
  6
CONTINUOUS
 62
8
 10
43.791996329698
 20
4.621373033403
 11
45.913316673257
 21
6.742693376963
  0
LINE
  8
Layer0
  6
CONTINUOUS
 62
8
 10
45.913316673257
 20
2.500052689843
 11
48.034637016817
 21
4.621373033403
  0
LINE
  8
Layer0
  6
CONTINUOUS
 62
8
 10
45.913316673257
 20
6.742693376963
 11
48.034637016817
 21
4.621373033403
  0
LINE
  8
Layer0
  6
CONTINUOUS
 62
8
 10
45.913316673257
 20
2.500052689843
 11
43.791996329698
 21
4.621373033403
  0
LINE
  8
Layer0
  6
CONTINUOUS
 62
8
 10
45.913316673257
 20
5.371373033403
 11
45.913316673257
 21
3.871373033403
  0
LINE
  8
Layer0
  6
CONTINUOUS
 62
8
 10
45.163316673257
 20
4.621373033403
 11
46.663316673257
 21
4.621373033403
  0
LINE
  8
Layer0
  6
CONTINUOUS
 62
8
 10
45.413316673257
 20
2.096373033403
 11
46.413316673257
 21
2.096373033403
  0
LINE
  8
Layer0
  6
CONTINUOUS
 62
8
 10
45.413316673257
 20
2.346373033403
 11
46.413316673257
 21
2.346373033403
  0
LINE
  8
Layer0
  6
CONTINUOUS
 62
8
 10
45.413316673257
 20
2.346373033403
 11
45.413316673257
 21
2.096373033403
  0
LINE
  8
Layer0
  6
CONTINUOUS
 62
8
 10
46.413316673257
 20
2.346373033403
 11
46.413316673257
 21
2.096373033403
  0
LINE
  8
Layer0
  6
CONTINUOUS
 62
8
 10
45.413316673257
 20
7.146373033403
 11
46.413316673257
 21
7.146373033403
  0
LINE
  8
Layer0
  6
CONTINUOUS
 62
8
 10
45.413316673257
 20
6.896373033403
 11
46.413316673257
 21
6.896373033403
  0
LINE
  8
Layer0
  6
CONTINUOUS
 62
8
 10
45.413316673257
 20
6.896373033403
 11
45.413316673257
 21
7.146373033403
  0
LINE
  8
Layer0
  6
CONTINUOUS
 62
8
 10
46.413316673257
 20
6.896373033403
 11
46.413316673257
 21
7.146373033403
  0
ARC
  8
Layer0
  6
CONTINUOUS
 62
8
 10
45.913316673257
 20
4.621373033403
 40
4.000000000000
 50
-352.819244218542
 51
-277.180755781458
  0
LINE
  8
Layer0
  6
CONTINUOUS
 62
8
 10
43.514879682215
 20
5.121373033403
 11
41.944689706660
 21
5.121373033403
  0
LINE
  8
Layer0
  6
CONTINUOUS
 62
8
 10
43.514879682215
 20
4.121373033403
 11
41.944689706660
 21
4.121373033403
  0
LINE
  8
Layer0
  6
CONTINUOUS
 62
8
 10
48.311753664299
 20
5.121373033403
 11
49.881943639854
 21
5.121373033403
  0
LINE
  8
Layer0
  6
CONTINUOUS
 62
8
 10
48.311753664299
 20
4.121373033403
 11
49.881943639854
 21
4.121373033403
  0
ARC
  8
Layer0
  6
CONTINUOUS
 62
8
 10
45.913316673257
 20
4.621373033403
 40
4.000000000000
 50
-172.819244218542
 51
-7.180755781458
  0
ARC
  8
Layer0
  6
CONTINUOUS
 62
8
 10
45.913316673257
 20
4.621373033403
 40
4.000000000000
 50
-262.819244218542
 51
-187.180755781458
  0
ARC
  8
Layer0
  6
CONTINUOUS
 62
8
 10
45.913316673257
 20
13.420000000000
 40
4.000000000000
 50
-82.819244218542
 51
-7.180755781458
  0
LINE
  8
Layer0
  6
CONTINUOUS
 62
8
 10
46.413316673257
 20
17.950000000000
 11
46.413316673257
 21
17.388626966597
  0
LINE
  8
Layer0
  6
CONTINUOUS
 62
8
 10
45.413316673257
 20
17.388626966597
 11
45.413316673257
 21
17.950000000000
  0
LINE
  8
Layer0
  6
CONTINUOUS
 62
8
 10
46.413316673257
 20
9.451373033403
 11
46.413316673257
 21
8.590000000000
  0
LINE
  8
Layer0
  6
CONTINUOUS
 62
8
 10
45.413316673257
 20
8.590000000000
 11
45.413316673257
 21
9.451373033403
  0
LINE
  8
Layer0
  6
CONTINUOUS
 62
8
 10
48.860000000000
 20
32.650000000000
 11
48.860000000000
 21
35.450000000000
  0
LINE
  8
Layer0
  6
CONTINUOUS
 62
8
 10
48.860000000000
 20
35.450000000000
 11
44.060000000000
 21
35.450000000000
  0
LINE
  8
Layer0
  6
CONTINUOUS
 62
8
 10
44.060000000000
 20
35.450000000000
 11
44.060000000000
 21
32.650000000000
  0
LINE
  8
Layer0
  6
CONTINUOUS
 62
8
 10
44.060000000000
 20
32.650000000000
 11
48.860000000000
 21
32.650000000000
  0
ARC
  8
Layer0
  6
CONTINUOUS
 62
8
 10
46.610000000000
 20
25.150000000000
 40
0.500000000000
 50
-90.000000000000
 51
-90.000000000000
  0
ARC
  8
Layer0
  6
CONTINUOUS
 62
8
 10
46.610000000000
 20
22.850000000000
 40
0.500000000000
 50
90.000000000000
 51
90.000000000000
  0
LINE
  8
Layer0
  6
CONTINUOUS
 62
8
 10
46.610000000000
 20
44.750000000000
 11
49.560000000000
 21
44.750000000000
  0
LINE
  8
Layer0
  6
CONTINUOUS
 62
8
 10
46.610000000000
 20
50.150000000000
 11
49.560000000000
 21
50.150000000000
  0
LINE
  8
Layer0
  6
CONTINUOUS
 62
8
 10
46.610000000000
 20
43.450000000000
 11
49.560000000000
 21
43.450000000000
  0
LINE
  8
Layer0
  6
CONTINUOUS
 62
8
 10
46.610000000000
 20
38.050000000000
 11
49.560000000000
 21
38.050000000000
  0
LINE
  8
Layer0
  6
CONTINUOUS
 62
8
 10
46.610000000000
 20
36.750000000000
 11
49.560000000000
 21
36.750000000000
  0
LINE
  8
Layer0
  6
CONTINUOUS
 62
8
 10
46.610000000000
 20
31.350000000000
 11
49.560000000000
 21
31.350000000000
  0
LINE
  8
Layer0
  6
CONTINUOUS
 62
8
 10
46.610000000000
 20
30.050000000000
 11
49.560000000000
 21
30.050000000000
  0
LINE
  8
Layer0
  6
CONTINUOUS
 62
8
 10
46.610000000000
 20
24.650000000000
 11
49.560000000000
 21
24.650000000000
  0
LINE
  8
Layer0
  6
CONTINUOUS
 62
8
 10
46.610000000000
 20
23.350000000000
 11
49.560000000000
 21
23.350000000000
  0
LINE
  8
Layer0
  6
CONTINUOUS
 62
8
 10
46.413316673257
 20
17.950000000000
 11
49.560000000000
 21
17.950000000000
  0
LINE
  8
Layer0
  6
CONTINUOUS
 62
8
 10
50.560000000000
 20
42.450000000000
 11
50.560000000000
 21
39.050000000000
  0
LINE
  8
Layer0
  6
CONTINUOUS
 62
8
 10
50.560000000000
 20
35.750000000000
 11
50.560000000000
 21
32.350000000000
  0
LINE
  8
Layer0
  6
CONTINUOUS
 62
8
 10
50.560000000000
 20
29.050000000000
 11
50.560000000000
 21
25.650000000000
  0
LINE
  8
Layer0
  6
CONTINUOUS
 62
8
 10
50.560000000000
 20
22.350000000000
 11
50.560000000000
 21
18.950000000000
  0
LINE
  8
Layer0
  6
CONTINUOUS
 62
8
 10
46.610000000000
 20
50.150000000000
 11
41.160000000000
 21
50.150000000000
  0
LINE
  8
Layer0
  6
CONTINUOUS
 62
8
 10
45.610000000000
 20
44.750000000000
 11
41.160000000000
 21
44.750000000000
  0
LINE
  8
Layer0
  6
CONTINUOUS
 62
8
 10
45.610000000000
 20
43.450000000000
 11
41.160000000000
 21
43.450000000000
  0
LINE
  8
Layer0
  6
CONTINUOUS
 62
8
 10
45.610000000000
 20
38.050000000000
 11
41.160000000000
 21
38.050000000000
  0
LINE
  8
Layer0
  6
CONTINUOUS
 62
8
 10
45.610000000000
 20
36.750000000000
 11
41.160000000000
 21
36.750000000000
  0
LINE
  8
Layer0
  6
CONTINUOUS
 62
8
 10
45.610000000000
 20
30.050000000000
 11
41.160000000000
 21
30.050000000000
  0
LINE
  8
Layer0
  6
CONTINUOUS
 62
8
 10
45.610000000000
 20
24.650000000000
 11
41.160000000000
 21
24.650000000000
  0
LINE
  8
Layer0
  6
CONTINUOUS
 62
8
 10
45.610000000000
 20
23.350000000000
 11
41.160000000000
 21
23.350000000000
  0
LINE
  8
Layer0
  6
CONTINUOUS
 62
8
 10
45.413316673257
 20
17.950000000000
 11
41.160000000000
 21
17.950000000000
  0
LINE
  8
Layer0
  6
CONTINUOUS
 62
8
 10
50.560000000000
 20
35.750000000000
 11
49.560000000000
 21
36.750000000000
  0
LINE
  8
Layer0
  6
CONTINUOUS
 62
8
 10
50.560000000000
 20
29.050000000000
 11
49.560000000000
 21
30.050000000000
  0
LINE
  8
Layer0
  6
CONTINUOUS
 62
8
 10
50.560000000000
 20
22.350000000000
 11
49.560000000000
 21
23.350000000000
  0
LINE
  8
Layer0
  6
CONTINUOUS
 62
8
 10
50.560000000000
 20
18.950000000000
 11
49.560000000000
 21
17.950000000000
  0
LINE
  8
Layer0
  6
CONTINUOUS
 62
8
 10
50.560000000000
 20
39.050000000000
 11
49.560000000000
 21
38.050000000000
  0
LINE
  8
Layer0
  6
CONTINUOUS
 62
8
 10
50.560000000000
 20
42.450000000000
 11
49.560000000000
 21
43.450000000000
  0
LINE
  8
Layer0
  6
CONTINUOUS
 62
8
 10
50.560000000000
 20
45.750000000000
 11
49.560000000000
 21
44.750000000000
  0
LINE
  8
Layer0
  6
CONTINUOUS
 62
8
 10
50.560000000000
 20
49.150000000000
 11
49.560000000000
 21
50.150000000000
  0
LINE
  8
Layer0
  6
CONTINUOUS
 62
8
 10
50.560000000000
 20
25.650000000000
 11
49.560000000000
 21
24.650000000000
  0
LINE
  8
Layer0
  6
CONTINUOUS
 62
8
 10
50.560000000000
 20
32.350000000000
 11
49.560000000000
 21
31.350000000000
  0
LINE
  8
Layer0
  6
CONTINUOUS
 62
8
 10
45.610000000000
 20
31.350000000000
 11
41.160000000000
 21
31.350000000000
  0
LINE
  8
Layer0
  6
DOT
 62
5
 10
28.999670810514
 20
27.433407291748
 11
28.999670810514
 21
27.436592708252
  0
ARC
  8
Layer0
  6
CONTINUOUS
 62
8
 10
5.491022135822
 20
34.617115048238
 40
0.300000000000
 50
0.000000000000
 51
0.000000000000
  0
LINE
  8
Layer0
  6
CONTINUOUS
 62
8
 10
8.491022135822
 20
44.864080838886
 11
5.491022135822
 21
44.864080838886
  0
LINE
  8
Layer0
  6
CONTINUOUS
 62
8
 10
8.491022135822
 20
16.037046702574
 11
5.491022135822
 21
16.037046702574
  0
LINE
  8
Layer0
  6
CONTINUOUS
 62
8
 10
0.000000000000
 20
11.512909907575
 11
-0.000180809714
 21
11.523694297415
  0
LINE
  8
Layer0
  6
CONTINUOUS
 62
8
 10
-0.000180809714
 20
40.496330835111
 11
4.991022135822
 21
38.424363897616
  0
LINE
  8
Layer0
  6
CONTINUOUS
 62
8
 10
37.990873756050
 20
40.496330835110
 11
32.999670810514
 21
38.424363897616
  0
LINE
  8
Layer0
  6
CONTINUOUS
 62
8
 10
22.121022135822
 20
43.867046702574
 11
27.371022135822
 21
43.867046702574
  0
LINE
  8
Layer0
  6
CONTINUOUS
 62
8
 10
22.121022135822
 20
37.867046702574
 11
27.371022135822
 21
37.867046702574
  0
LINE
  8
Layer0
  6
CONTINUOUS
 62
8
 10
27.371022135822
 20
43.867046702574
 11
27.371022135822
 21
37.867046702574
  0
LINE
  8
Layer0
  6
CONTINUOUS
 62
8
 10
37.990692946336
 20
11.512909907575
 11
32.999670810514
 21
13.580258966337
  0
LINE
  8
Layer0
  6
CONTINUOUS
 62
8
 10
0.000000000000
 20
11.512909907575
 11
4.991022135822
 21
13.580258966337
  0
LINE
  8
Layer0
  6
CONTINUOUS
 62
8
 10
4.991022135822
 20
13.580258966337
 11
4.991022135822
 21
38.424363897616
  0
LINE
  8
Layer0
  6
CONTINUOUS
 62
8
 10
17.000360039431
 20
54.790013566263
 11
17.000360039431
 21
55.540013566263
  0
LINE
  8
Layer0
  6
CONTINUOUS
 62
8
 10
17.000360039431
 20
55.540013566263
 11
17.500360039431
 21
55.540013566263
  0
LINE
  8
Layer0
  6
CONTINUOUS
 62
8
 10
21.000360039431
 20
54.790013566263
 11
21.000360039431
 21
55.540013566263
  0
LINE
  8
Layer0
  6
CONTINUOUS
 62
8
 10
20.500360039431
 20
55.540013566263
 11
21.000360039431
 21
55.540013566263
  0
LINE
  8
Layer0
  6
CONTINUOUS
 62
8
 10
21.195346473168
 20
54.790013566263
 11
16.795346473168
 21
54.790013566263
  0
LINE
  8
Layer0
  6
CONTINUOUS
 62
8
 10
21.195346473168
 20
54.090013566263
 11
21.195346473168
 21
54.790013566263
  0
LINE
  8
Layer0
  6
CONTINUOUS
 62
8
 10
16.795346473168
 20
54.090013566263
 11
21.195346473168
 21
54.090013566263
  0
LINE
  8
Layer0
  6
CONTINUOUS
 62
8
 10
16.795346473168
 20
54.090013566263
 11
16.795346473168
 21
54.790013566263
  0
LINE
  8
Layer0
  6
CONTINUOUS
 62
8
 10
5.491022135822
 20
44.864080838886
 11
5.491022135822
 21
16.037046702574
  0
LINE
  8
Layer0
  6
CONTINUOUS
 62
8
 10
32.999670810514
 20
38.424363897616
 11
32.999670810514
 21
35.050000000000
  0
LINE
  8
Layer0
  6
CONTINUOUS
 62
8
 10
18.995346473168
 20
59.140021325705
 11
18.995346473168
 21
54.090013566263
  0
LINE
  8
Layer0
  6
CONTINUOUS
 62
8
 10
30.132131432356
 20
52.492012272516
 11
32.324162016196
 21
54.684042856356
  0
LINE
  8
Layer0
  6
CONTINUOUS
 62
8
 10
28.010811088796
 20
54.613332616075
 11
30.202841672636
 21
56.805363199916
  0
ARC
  8
Layer0
  6
CONTINUOUS
 62
8
 10
31.263501844416
 20
55.744703028136
 40
1.500000000000
 50
-45.000000000000
 51
135.000000000000
  0
LINE
  8
Layer0
  6
CONTINUOUS
 62
8
 10
29.955354737059
 20
51.608128796033
 11
30.485684822949
 21
52.138458881923
  0
LINE
  8
Layer0
  6
CONTINUOUS
 62
8
 10
30.485684822949
 20
52.138458881923
 11
30.132131432356
 21
52.492012272516
  0
LINE
  8
Layer0
  6
CONTINUOUS
 62
8
 10
27.126927612313
 20
54.436555920779
 11
27.657257698203
 21
54.966886006669
  0
LINE
  8
Layer0
  6
CONTINUOUS
 62
8
 10
28.010811088796
 20
54.613332616075
 11
27.657257698203
 21
54.966886006669
  0
LINE
  8
Layer0
  6
CONTINUOUS
 62
8
 10
26.989051382778
 20
54.574432150314
 11
30.100321219999
 21
51.463162313093
  0
LINE
  8
Layer0
  6
CONTINUOUS
 62
8
 10
26.494076635947
 20
54.079457403483
 11
26.989051382778
 21
54.574432150314
  0
LINE
  8
Layer0
  6
CONTINUOUS
 62
8
 10
29.605346473168
 20
50.968187566263
 11
26.494076635947
 21
54.079457403483
  0
LINE
  8
Layer0
  6
CONTINUOUS
 62
8
 10
29.605346473168
 20
50.968187566263
 11
30.100321219999
 21
51.463162313093
  0
ARC
  8
Layer0
  6
CONTINUOUS
 62
8
 10
18.995346473168
 20
43.496330835111
 40
18.995527282882
 50
0.000000000000
 51
60.332974128462
  0
LINE
  8
Layer0
  6
CONTINUOUS
 62
8
 10
-0.004653526832
 20
0.000000000000
 11
37.990692946336
 21
0.000000000000
  0
LINE
  8
Layer0
  6
CONTINUOUS
 62
8
 10
18.995346473168
 20
59.140021325705
 11
18.995346473168
 21
60.001858117993
  0
LINE
  8
Layer0
  6
CONTINUOUS
 62
8
 10
17.500360039431
 20
55.540013566263
 11
20.500360039431
 21
55.540013566263
  0
LINE
  8
Layer0
  6
CONTINUOUS
 62
8
 10
7.858561513980
 20
52.492012272516
 11
5.666530930140
 21
54.684042856356
  0
LINE
  8
Layer0
  6
CONTINUOUS
 62
8
 10
9.979881857540
 20
54.613332616075
 11
7.787851273700
 21
56.805363199916
  0
ARC
  8
Layer0
  6
CONTINUOUS
 62
8
 10
6.727191101920
 20
55.744703028136
 40
1.500000000000
 50
45.000000000000
 51
225.000000000000
  0
LINE
  8
Layer0
  6
CONTINUOUS
 62
8
 10
8.035338209277
 20
51.608128796033
 11
7.505008123387
 21
52.138458881923
  0
LINE
  8
Layer0
  6
CONTINUOUS
 62
8
 10
7.505008123387
 20
52.138458881923
 11
7.858561513980
 21
52.492012272516
  0
LINE
  8
Layer0
  6
CONTINUOUS
 62
8
 10
10.863765334023
 20
54.436555920779
 11
10.333435248133
 21
54.966886006669
  0
LINE
  8
Layer0
  6
CONTINUOUS
 62
8
 10
9.979881857540
 20
54.613332616075
 11
10.333435248133
 21
54.966886006669
  0
LINE
  8
Layer0
  6
CONTINUOUS
 62
8
 10
11.001641563558
 20
54.574432150314
 11
7.890371726337
 21
51.463162313093
  0
LINE
  8
Layer0
  6
CONTINUOUS
 62
8
 10
11.496616310389
 20
54.079457403483
 11
11.001641563558
 21
54.574432150314
  0
LINE
  8
Layer0
  6
CONTINUOUS
 62
8
 10
8.385346473168
 20
50.968187566263
 11
11.496616310389
 21
54.079457403483
  0
LINE
  8
Layer0
  6
CONTINUOUS
 62
8
 10
8.385346473168
 20
50.968187566263
 11
7.890371726337
 21
51.463162313093
  0
ARC
  8
Layer0
  6
CONTINUOUS
 62
8
 10
18.995346473168
 20
43.496330835111
 40
18.995527282882
 50
119.667025871538
 51
180.000000000000
  0
LINE
  8
Layer0
  6
CONTINUOUS
 62
8
 10
18.995346473168
 20
60.001858117993
 11
9.593345310184
 21
60.001858117993
  0
LINE
  8
Layer0
  6
CONTINUOUS
 62
8
 10
18.995346473168
 20
60.001858117993
 11
28.397347636152
 21
60.001858117993
  0
LINE
  8
Layer0
  6
CONTINUOUS
 62
8
 10
0.000000000000
 20
11.512909907575
 11
0.000000000000
 21
0.000000000000
  0
LINE
  8
Layer0
  6
CONTINUOUS
 62
8
 10
37.990692946336
 20
11.512909907575
 11
37.990692946336
 21
0.000000000000
  0
CIRCLE
  8
Layer0
  6
CONTINUOUS
 62
8
 10
7.241022135822
 20
21.808529634418
 40
0.800000000000
  0
CIRCLE
  8
Layer0
  6
CONTINUOUS
 62
8
 10
7.241022135822
 20
30.188529634418
 40
0.800000000000
  0
LINE
  8
Layer0
  6
CONTINUOUS
 62
8
 10
5.491022135822
 20
20.008529634418
 11
10.987856229652
 21
20.008529634418
  0
LINE
  8
Layer0
  6
CONTINUOUS
 62
8
 10
5.491022135822
 20
23.608529634418
 11
9.285150800577
 21
23.608529634418
  0
LINE
  8
Layer0
  6
CONTINUOUS
 62
8
 10
5.491022135822
 20
28.388529634418
 11
9.285150800577
 21
28.388529634418
  0
LINE
  8
Layer0
  6
CONTINUOUS
 62
8
 10
5.491022135822
 20
31.988529634418
 11
10.987856229652
 21
31.988529634418
  0
CIRCLE
  8
Layer0
  6
CONTINUOUS
 62
8
 10
18.995346473168
 20
25.998529634418
 40
2.000000000000
  0
CIRCLE
  8
Layer0
  6
CONTINUOUS
 62
8
 10
18.995346473168
 20
25.998529634418
 40
3.000000000000
  0
CIRCLE
  8
Layer0
  6
CONTINUOUS
 62
8
 10
18.995346473168
 20
25.998529634418
 40
9.000000000000
  0
CIRCLE
  8
Layer0
  6
CONTINUOUS
 62
8
 10
18.995346473168
 20
25.998529634418
 40
10.000000000000
  0
LINE
  8
Layer0
  6
CONTINUOUS
 62
8
 10
-0.000180809714
 20
43.496330835111
 11
-0.000180809714
 21
40.496330835111
  0
LINE
  8
Layer0
  6
CONTINUOUS
 62
8
 10
37.990873756050
 20
43.496330835111
 11
37.990873756050
 21
40.496330835110
  0
LINE
  8
Layer0
  6
CONTINUOUS
 62
8
 10
29.499670810514
 20
7.132978429951
 11
32.499670810514
 21
7.132978429951
  0
LINE
  8
Layer0
  6
CONTINUOUS
 62
8
 10
29.499670810514
 20
35.960012566263
 11
32.499670810514
 21
35.960012566263
  0
LINE
  8
Layer0
  6
CONTINUOUS
 62
8
 10
15.869670810514
 20
8.130012566263
 11
10.619670810514
 21
8.130012566263
  0
LINE
  8
Layer0
  6
CONTINUOUS
 62
8
 10
15.869670810514
 20
14.130012566263
 11
10.619670810514
 21
14.130012566263
  0
LINE
  8
Layer0
  6
CONTINUOUS
 62
8
 10
10.619670810514
 20
8.130012566263
 11
10.619670810514
 21
14.130012566263
  0
LINE
  8
Layer0
  6
CONTINUOUS
 62
8
 10
28.999670810514
 20
31.988529634418
 11
28.999670810514
 21
20.008529634418
  0
LINE
  8
Layer0
  6
CONTINUOUS
 62
8
 10
32.499670810514
 20
7.132978429951
 11
32.499670810514
 21
35.960012566263
  0
CIRCLE
  8
Layer0
  6
CONTINUOUS
 62
8
 10
30.749670810514
 20
30.188529634418
 40
0.800000000000
  0
CIRCLE
  8
Layer0
  6
CONTINUOUS
 62
8
 10
30.749670810514
 20
21.808529634418
 40
0.800000000000
  0
LINE
  8
Layer0
  6
CONTINUOUS
 62
8
 10
32.499670810514
 20
31.988529634418
 11
27.002836716684
 21
31.988529634418
  0
LINE
  8
Layer0
  6
CONTINUOUS
 62
8
 10
32.499670810514
 20
28.388529634418
 11
28.705542145759
 21
28.388529634418
  0
LINE
  8
Layer0
  6
CONTINUOUS
 62
8
 10
32.499670810514
 20
23.608529634418
 11
28.705542145759
 21
23.608529634418
  0
LINE
  8
Layer0
  6
CONTINUOUS
 62
8
 10
32.499670810514
 20
20.008529634418
 11
27.002836716684
 21
20.008529634418
  0
LINE
  8
Layer0
  6
CONTINUOUS
 62
8
 10
33.151947750883
 20
47.321742301074
 11
33.690256994128
 21
50.374645725622
  0
LINE
  8
Layer0
  6
CONTINUOUS
 62
8
 10
36.106371009920
 20
46.800797768073
 11
36.644680253165
 21
49.853701192622
  0
ARC
  8
Layer0
  6
CONTINUOUS
 62
8
 10
35.167468623646
 20
50.114173459122
 40
1.500000000000
 50
-10.000000000000
 51
170.000000000000
  0
LINE
  8
Layer0
  6
CONTINUOUS
 62
8
 10
32.529307741127
 20
46.669960575148
 11
32.659543874377
 21
47.408566389908
  0
LINE
  8
Layer0
  6
CONTINUOUS
 62
8
 10
32.659543874377
 20
47.408566389908
 11
33.151947750883
 21
47.321742301074
  0
LINE
  8
Layer0
  6
CONTINUOUS
 62
8
 10
36.468538753176
 20
45.975367864481
 11
36.598774886426
 21
46.713973679240
  0
LINE
  8
Layer0
  6
CONTINUOUS
 62
8
 10
36.106371009920
 20
46.800797768073
 11
36.598774886426
 21
46.713973679240
  0
LINE
  8
Layer0
  6
CONTINUOUS
 62
8
 10
36.660562904852
 20
45.941508825592
 11
32.327408791599
 21
46.705560807327
  0
LINE
  8
Layer0
  6
CONTINUOUS
 62
8
 10
36.539009180486
 20
45.252143398484
 11
36.660562904852
 21
45.941508825592
  0
LINE
  8
Layer0
  6
CONTINUOUS
 62
8
 10
32.205855067232
 20
46.016195380218
 11
36.539009180486
 21
45.252143398484
  0
LINE
  8
Layer0
  6
CONTINUOUS
 62
8
 10
32.205855067232
 20
46.016195380218
 11
32.327408791599
 21
46.705560807327
  0
LINE
  8
Layer0
  6
CONTINUOUS
 62
8
 10
4.838745195453
 20
47.321742301074
 11
4.300435952208
 21
50.374645725622
  0
LINE
  8
Layer0
  6
CONTINUOUS
 62
8
 10
1.884321936416
 20
46.800797768073
 11
1.346012693171
 21
49.853701192622
  0
ARC
  8
Layer0
  6
CONTINUOUS
 62
8
 10
2.823224322690
 20
50.114173459122
 40
1.500000000000
 50
10.000000000000
 51
190.000000000000
  0
LINE
  8
Layer0
  6
CONTINUOUS
 62
8
 10
5.461385205209
 20
46.669960575148
 11
5.331149071959
 21
47.408566389908
  0
LINE
  8
Layer0
  6
CONTINUOUS
 62
8
 10
5.331149071959
 20
47.408566389908
 11
4.838745195453
 21
47.321742301074
  0
LINE
  8
Layer0
  6
CONTINUOUS
 62
8
 10
1.522154193160
 20
45.975367864481
 11
1.391918059910
 21
46.713973679240
  0
LINE
  8
Layer0
  6
CONTINUOUS
 62
8
 10
1.884321936416
 20
46.800797768073
 11
1.391918059910
 21
46.713973679240
  0
LINE
  8
Layer0
  6
CONTINUOUS
 62
8
 10
1.330130041484
 20
45.941508825592
 11
5.663284154737
 21
46.705560807327
  0
LINE
  8
Layer0
  6
CONTINUOUS
 62
8
 10
1.451683765850
 20
45.252143398484
 11
1.330130041484
 21
45.941508825592
  0
LINE
  8
Layer0
  6
CONTINUOUS
 62
8
 10
5.784837879104
 20
46.016195380218
 11
1.451683765850
 21
45.252143398484
  0
LINE
  8
Layer0
  6
CONTINUOUS
 62
8
 10
5.784837879104
 20
46.016195380218
 11
5.663284154737
 21
46.705560807327
  0
LINE
  8
Layer0
  6
CONTINUOUS
 62
8
 10
8.491022135822
 20
16.037046702574
 11
8.491022135822
 21
20.008529634418
  0
LINE
  8
Layer0
  6
CONTINUOUS
 62
8
 10
8.491022135822
 20
31.988529634418
 11
8.491022135822
 21
44.864080838886
  0
LINE
  8
Layer0
  6
CONTINUOUS
 62
8
 10
8.991022135822
 20
20.008529634418
 11
8.991022135822
 21
31.988529634418
  0
ARC
  8
Layer0
  6
CONTINUOUS
 62
8
 10
28.999670810514
 20
35.960012566263
 40
0.500000000000
 50
0.000000000000
 51
0.000000000000
  0
LINE
  8
Layer0
  6
CONTINUOUS
 62
8
 10
29.499670810514
 20
35.960012566263
 11
29.499670810514
 21
31.988529634418
  0
LINE
  8
Layer0
  6
CONTINUOUS
 62
8
 10
29.499670810514
 20
20.008529634418
 11
29.499670810514
 21
7.132978429951
  0
LINE
  8
Layer0
  6
CONTINUOUS
 62
8
 10
22.121022135822
 20
43.867046702574
 11
22.121022135822
 21
37.867046702574
  0
LINE
  8
Layer0
  6
CONTINUOUS
 62
8
 10
22.121022135822
 20
37.867046702574
 11
8.491022135822
 21
37.867046702574
  0
LINE
  8
Layer0
  6
CONTINUOUS
 62
8
 10
22.121022135822
 20
43.867046702574
 11
8.491022135822
 21
43.867046702574
  0
LINE
  8
Layer0
  6
CONTINUOUS
 62
8
 10
15.869670810514
 20
14.130012566263
 11
15.869670810514
 21
8.130012566263
  0
LINE
  8
Layer0
  6
CONTINUOUS
 62
8
 10
15.869670810514
 20
14.130012566263
 11
29.499670810514
 21
14.130012566263
  0
LINE
  8
Layer0
  6
CONTINUOUS
 62
8
 10
15.869670810514
 20
8.130012566263
 11
29.499670810514
 21
8.130012566263
  0
LINE
  8
Layer0
  6
CONTINUOUS
 62
8
 10
40.060000000000
 20
35.050000000000
 11
32.999670810514
 21
35.050000000000
  0
LINE
  8
Layer0
  6
CONTINUOUS
 62
8
 10
40.060000000000
 20
33.050000000000
 11
32.999670810514
 21
33.050000000000
  0
LINE
  8
Layer0
  6
CONTINUOUS
 62
8
 10
40.060000000000
 20
21.650000000000
 11
32.999670810514
 21
21.650000000000
  0
LINE
  8
Layer0
  6
CONTINUOUS
 62
8
 10
40.060000000000
 20
19.650000000000
 11
32.999670810514
 21
19.650000000000
  0
LINE
  8
Layer0
  6
CONTINUOUS
 62
8
 10
32.999670810514
 20
33.050000000000
 11
32.999670810514
 21
21.650000000000
  0
LINE
  8
Layer0
  6
CONTINUOUS
 62
8
 10
40.060000000000
 20
33.050000000000
 11
40.060000000000
 21
31.850000000000
  0
LINE
  8
Layer0
  6
CONTINUOUS
 62
8
 10
40.060000000000
 20
19.650000000000
 11
40.060000000000
 21
18.450000000000
  0
LINE
  8
Layer0
  6
CONTINUOUS
 62
8
 10
32.999670810514
 20
19.650000000000
 11
32.999670810514
 21
13.580258966337
  0
ENDSEC
  0
EOF
